<svg width="97" height="24" viewBox="0 0 97 24" fill="none" xmlns="http://www.w3.org/2000/svg">
<g clip-path="url(#clip0_416_300)">
<path d="M18.701 8.34647C17.3074 11.0121 12.1432 15.5754 11.3291 16.2802L11.2191 16.3736L11.1805 16.3013C10.9828 15.8816 10.8188 15.4465 10.6902 15.0001L10.6367 14.8103L10.5833 14.6085C10.1645 12.937 10.0338 11.2047 10.197 9.48803C10.197 9.27418 10.2356 9.0543 10.2624 8.83141C10.3353 8.18229 10.5119 7.54953 10.7853 6.95791C11.1651 6.40272 11.5938 5.88353 12.066 5.4067L11.9917 5.3314C12.253 5.09267 12.5355 4.87892 12.8356 4.69285C13.051 4.55883 13.2732 4.43617 13.5011 4.32538C14.7521 3.72297 15.9436 3.55128 16.2496 3.37056C16.8707 2.99707 17.2985 4.81634 18.6505 6.48201C18.7107 7.1015 18.7276 7.72455 18.701 8.34647Z" fill="white" stroke="white" stroke-width="0.75" stroke-miterlimit="10"/>
<path d="M19.1358 1.90965C19.028 1.7208 18.8606 1.57417 18.6607 1.49332C18.4608 1.41247 18.2399 1.4021 18.0334 1.46387C16.3498 1.99413 14.7702 2.81769 13.3654 3.89761C13.1673 4.05222 12.9692 4.21487 12.7711 4.38556L12.7295 4.4217C12.477 4.63857 12.2244 4.87953 11.9718 5.13857C11.4769 5.64151 11.0293 6.19006 10.6347 6.77712C9.38545 8.63535 8.73177 10.8389 8.76277 13.0874V13.1536C8.76693 13.7126 8.80364 14.2708 8.87271 14.8253C8.92026 15.1988 8.98265 15.5753 9.05991 15.9669C9.09771 16.1532 9.19038 16.3234 9.32566 16.4552C9.46095 16.5869 9.63248 16.674 9.81761 16.7048C9.86405 16.7094 9.91082 16.7094 9.95726 16.7048H9.984C10.0642 16.7048 10.2811 16.7048 10.6288 16.6747C10.7536 16.6747 10.8962 16.6476 11.0507 16.6265H11.1101H11.2023C12.6345 16.4217 14.6431 15.8615 16.2833 14.3524C17.9235 12.8434 18.7822 10.8163 18.8951 8.25604C18.9225 7.59695 18.9047 6.93672 18.8416 6.28014C18.8416 6.12652 18.8119 5.97893 18.7941 5.81628C18.7955 5.79622 18.7955 5.77609 18.7941 5.75604C18.4494 3.9217 18.8892 3.15363 18.9724 3.0452C19.1251 2.90439 19.2249 2.7142 19.2547 2.5071C19.2845 2.3 19.2425 2.08883 19.1358 1.90965ZM10.8576 14.7681L10.7298 14.7832C10.6525 14.2464 10.6108 13.705 10.605 13.1627C10.5725 11.7759 10.8512 10.3998 11.42 9.13813C11.9887 7.87647 12.8328 6.76225 13.8884 5.87953C14.7736 5.11362 15.7547 4.4695 16.8062 3.96387C16.7631 4.66998 16.8111 5.37877 16.9489 6.07231C17.7422 12.8103 13.4753 14.4127 10.8576 14.7681Z" fill="white" stroke="white" stroke-width="0.75" stroke-miterlimit="10"/>
<path d="M10.0168 9.44571C9.91467 9.13843 9.79665 8.83681 9.66324 8.54209C9.10463 7.2859 8.32306 6.14446 7.35746 5.17463C7.11975 4.93366 6.8761 4.70475 6.63542 4.49692C6.39474 4.28909 6.1808 4.11438 5.95201 3.9427C4.56065 2.87333 2.9961 2.05792 1.32858 1.53306C1.12258 1.47094 0.901919 1.48116 0.702371 1.56207C0.502822 1.64299 0.336078 1.78985 0.229171 1.97885C0.131518 2.15722 0.0962794 2.36384 0.129189 2.56509C0.162098 2.76634 0.261218 2.95038 0.410424 3.08728C0.493622 3.21077 0.933385 3.99089 0.588707 5.79812V5.86137C0.184603 9.23186 0.844242 11.9126 2.54386 13.8343C4.62381 16.1746 7.59517 16.6505 8.85206 16.7469C9.12839 16.768 9.32153 16.771 9.39581 16.771H9.42256C9.56063 16.7688 9.69654 16.7359 9.82072 16.6746C9.94805 16.6113 10.0593 16.5192 10.1459 16.4053C10.2324 16.2915 10.292 16.1589 10.3199 16.018C10.3853 15.6837 10.4417 15.3584 10.4833 15.0361C10.4833 14.9668 10.5041 14.8945 10.513 14.8252C10.5817 14.2647 10.6165 13.7003 10.617 13.1355C10.6191 11.8804 10.4163 10.6337 10.0168 9.44571ZM3.90474 12.5993C2.58843 11.0933 2.08627 8.93065 2.41906 6.14752C2.55564 5.45382 2.60259 4.74506 2.55872 4.03908C3.59262 4.53579 4.55848 5.16657 5.43202 5.91559C7.62786 7.82824 8.74212 10.2258 8.75994 13.0782V13.1445C8.75848 13.7181 8.71678 14.2908 8.63515 14.8584C7.50306 14.7409 5.36962 14.2469 3.90474 12.5993Z" fill="white" stroke="white" stroke-width="0.75" stroke-miterlimit="10"/>
<path d="M13.9441 4.47894L12.6337 5.80726L9.68317 2.81629L7.35363 5.17473L6.84553 5.68979L5.53516 4.36147L9.68317 0.159668L13.3647 3.89159L13.4627 3.99099L13.9441 4.47894Z" fill="white" stroke="white" stroke-width="0.75" stroke-miterlimit="10"/>
<path d="M19.2499 23.8855H18.3584C15.0899 23.8855 12.5643 22.9578 10.8706 21.1205C9.54989 19.6502 8.79571 17.7469 8.74609 15.759V14.8223L10.5111 14.8554V15.7891C10.574 17.2873 11.1534 18.7156 12.1483 19.8253C13.5003 21.2741 15.5891 22.009 18.3584 22.009H19.2499V23.8855Z" fill="white" stroke="white" stroke-width="0.75" stroke-miterlimit="10"/>
<path d="M35.8522 11.3615L42.6388 4.30729L38.4789 3.54224H38.3481L31.9894 10.4248V3.54224L28.2188 4.30729L28.2187 20.2019L31.9894 20.9157L31.9894 12.2471L39.7536 20.9428L43.964 20.1627L35.8522 11.3615Z" fill="white" stroke="white" stroke-width="0.75" stroke-miterlimit="10"/>
<path d="M53.0471 3.21094C47.8265 3.21094 43.8359 7.16274 43.8359 12.2471C43.8359 17.3314 47.8324 21.3103 53.0471 21.3103C58.2619 21.3103 62.2583 17.3344 62.2583 12.2742C62.2583 7.21395 58.2559 3.21094 53.0471 3.21094ZM53.0471 17.717C51.9822 17.7039 50.9449 17.3718 50.0657 16.7626C49.1864 16.1533 48.5046 15.2941 48.106 14.2929C47.7074 13.2918 47.6097 12.1936 47.8254 11.1363C48.041 10.0791 48.5603 9.11011 49.3179 8.35133C50.0755 7.59255 51.0376 7.07785 52.083 6.87199C53.1285 6.66614 54.2107 6.77832 55.1934 7.19442C56.1761 7.61053 57.0155 8.31197 57.6059 9.21049C58.1963 10.109 58.5114 11.1645 58.5115 12.2441C58.5329 13.6743 57.9931 15.0547 57.0107 16.0816C56.0284 17.1084 54.6839 17.6978 53.273 17.72H53.0471V17.717Z" fill="white" stroke="white" stroke-width="0.75" stroke-miterlimit="10"/>
<path d="M81.0269 19.7288L71.8424 2.78906L62.5391 19.7228L65.9829 20.9276L67.7092 17.6475H75.9191L77.6544 20.9276H77.7108L81.0477 19.762L81.0269 19.7288ZM69.3791 14.4999L71.7978 9.92159L74.2343 14.5089L69.3791 14.4999Z" fill="white" stroke="white" stroke-width="0.75" stroke-miterlimit="10"/>
<path d="M91.6683 10.8252L89.321 10.3071C87.6243 9.9246 86.8904 9.45472 86.8874 8.47279C86.8874 7.36436 88.1235 6.74689 89.9033 6.75592C91.5075 6.79516 93.0713 7.27395 94.4287 8.14146L96.3126 5.18363C94.2508 3.96931 91.9105 3.32533 89.526 3.31616C85.7553 3.31616 82.8375 5.46677 82.8434 8.36135C82.8434 10.9939 84.3915 12.765 88.2275 13.6234L90.355 14.0993C92.3874 14.5541 93.0292 14.9397 92.9728 16.0089C92.9163 17.0782 91.7664 17.7529 89.9568 17.7529C87.9348 17.7417 85.9504 17.1978 84.1983 16.1746L82.1719 19.1385C84.1538 20.3945 87.0508 21.1987 89.7875 21.1987C94.0395 21.1987 96.892 18.9969 96.886 15.9909C96.8831 13.2168 95.3498 11.6324 91.6683 10.8252Z" fill="white" stroke="white" stroke-width="0.75" stroke-miterlimit="10"/>
<path d="M43.9623 20.1445L39.7578 20.9397" stroke="white" stroke-width="0.75" stroke-miterlimit="10"/>
</g>
<defs>
<clipPath id="clip0_416_300">
<rect width="97" height="24" fill="white"/>
</clipPath>
</defs>
</svg>
