<svg width="100" height="27" viewBox="0 0 100 27" fill="none" xmlns="http://www.w3.org/2000/svg">
<path d="M19.701 10.3465C18.3074 13.0121 13.1432 17.5754 12.3291 18.2802L12.2191 18.3736L12.1805 18.3013C11.9828 17.8816 11.8188 17.4465 11.6902 17.0001L11.6367 16.8103L11.5833 16.6085C11.1645 14.937 11.0338 13.2047 11.197 11.488C11.197 11.2742 11.2356 11.0543 11.2624 10.8314C11.3353 10.1823 11.5119 9.54953 11.7853 8.95791C11.7853 8.95791 11.7853 8.95791 11.7853 8.95791C12.1651 8.40272 12.5938 7.88353 13.066 7.4067L12.9917 7.3314C13.253 7.09267 13.5355 6.87892 13.8356 6.69285C14.051 6.55883 14.2732 6.43617 14.5011 6.32538V6.32538C15.7521 5.72297 16.9436 5.55128 17.2496 5.37056C17.8707 4.99707 18.2985 6.81634 19.6505 8.48201C19.7107 9.1015 19.7276 9.72455 19.701 10.3465V10.3465Z" fill="white" stroke="white" stroke-width="0.75" stroke-miterlimit="10"/>
<path d="M20.1358 3.9099C20.028 3.72104 19.8606 3.57441 19.6607 3.49357C19.4608 3.41272 19.2399 3.40234 19.0334 3.46412C17.3498 3.99438 15.7702 4.81794 14.3654 5.89785C14.1673 6.05247 13.9692 6.21512 13.7711 6.3858L13.7295 6.42195C13.477 6.63882 13.2244 6.87978 12.9718 7.13881C12.4769 7.64175 12.0293 8.1903 11.6347 8.77737C10.3854 10.6356 9.73177 12.8391 9.76277 15.0876V15.1539C9.76693 15.7128 9.80364 16.271 9.87271 16.8256C9.92026 17.1991 9.98265 17.5756 10.0599 17.9671C10.0977 18.1534 10.1904 18.3237 10.3257 18.4554C10.4609 18.5872 10.6325 18.6742 10.8176 18.7051C10.864 18.7097 10.9108 18.7097 10.9573 18.7051H10.984C11.0642 18.7051 11.2811 18.7051 11.6288 18.675C11.7536 18.675 11.8962 18.6479 12.0507 18.6268H12.1101H12.2023C13.6345 18.4219 15.6431 17.8617 17.2833 16.3527C18.9235 14.8436 19.7822 12.8165 19.8951 10.2563C19.9225 9.59719 19.9047 8.93696 19.8416 8.28038C19.8416 8.12677 19.8119 7.97917 19.7941 7.81652C19.7955 7.79647 19.7955 7.77634 19.7941 7.75628C19.4494 5.92195 19.8892 5.15387 19.9724 5.04544C20.1251 4.90463 20.2249 4.71444 20.2547 4.50734C20.2845 4.30024 20.2425 4.08907 20.1358 3.9099ZM11.8576 16.7683L11.7298 16.7834C11.6525 16.2467 11.6108 15.7053 11.605 15.1629C11.5725 13.7761 11.8512 12.4 12.42 11.1384C12.9887 9.87672 13.8328 8.76249 14.8884 7.87978C15.7736 7.11386 16.7547 6.46974 17.8062 5.96412C17.7631 6.67022 17.8111 7.37902 17.9489 8.07255C18.7422 14.8105 14.4753 16.4129 11.8576 16.7683Z" fill="white" stroke="white" stroke-width="0.75" stroke-miterlimit="10"/>
<path d="M11.0168 11.446C10.9147 11.1387 10.7966 10.8371 10.6632 10.5423C10.1046 9.28615 9.32306 8.1447 8.35746 7.17487C8.11975 6.93391 7.8761 6.70499 7.63542 6.49716C7.39474 6.28933 7.1808 6.11463 6.95201 5.94294C5.56065 4.87358 3.9961 4.05817 2.32858 3.5333C2.12258 3.47118 1.90192 3.48141 1.70237 3.56232C1.50282 3.64323 1.33608 3.79009 1.22917 3.97909C1.13152 4.15746 1.09628 4.36408 1.12919 4.56533C1.1621 4.76659 1.26122 4.95063 1.41042 5.08752C1.49362 5.21101 1.93338 5.99114 1.58871 7.79836V7.86162C1.1846 11.2321 1.84424 13.9128 3.54386 15.8345C5.62381 18.1749 8.59517 18.6508 9.85206 18.7472C10.1284 18.7682 10.3215 18.7713 10.3958 18.7713H10.4226C10.5606 18.769 10.6965 18.7361 10.8207 18.6749C10.9481 18.6116 11.0593 18.5194 11.1459 18.4056C11.2324 18.2917 11.292 18.1592 11.3199 18.0182C11.3853 17.6839 11.4417 17.3586 11.4833 17.0363C11.4833 16.967 11.5041 16.8947 11.513 16.8255C11.5817 16.2649 11.6165 15.7006 11.617 15.1357C11.6191 13.8807 11.4163 12.6339 11.0168 11.446V11.446ZM4.90474 14.5996C3.58843 13.0935 3.08627 10.9309 3.41906 8.14776C3.55564 7.45407 3.60259 6.74531 3.55872 6.03933C4.59262 6.53603 5.55848 7.16682 6.43202 7.91583C8.62786 9.82848 9.74212 12.2261 9.75994 15.0785V15.1447C9.75848 15.7183 9.71678 16.291 9.63515 16.8586C8.50306 16.7411 6.36962 16.2472 4.90474 14.5996Z" fill="white" stroke="white" stroke-width="0.75" stroke-miterlimit="10"/>
<path d="M14.9441 6.47894L13.6337 7.80726L10.6832 4.81629L8.35363 7.17473L7.84553 7.68979L6.53516 6.36147L10.6832 2.15967L14.3647 5.89159L14.4627 5.99099L14.9441 6.47894Z" fill="white" stroke="white" stroke-width="0.75" stroke-miterlimit="10"/>
<path d="M20.2499 25.8855H19.3584C16.0899 25.8855 13.5643 24.9578 11.8706 23.1205C10.5499 21.6502 9.79571 19.7469 9.74609 17.759V16.8223L11.5111 16.8554V17.7891C11.574 19.2873 12.1534 20.7156 13.1483 21.8253C14.5003 23.2741 16.5891 24.009 19.3584 24.009H20.2499V25.8855Z" fill="white" stroke="white" stroke-width="0.75" stroke-miterlimit="10"/>
<path d="M36.8522 13.3613L43.6388 6.30705L39.4789 5.54199H39.3481L32.9894 12.4245V5.54199L29.2188 6.30705L29.2187 22.2016L32.9894 22.9155V14.2468L40.7536 22.9426L44.964 22.1625L36.8522 13.3613Z" fill="white" stroke="white" stroke-width="0.75" stroke-miterlimit="10"/>
<path d="M54.0471 5.21094C48.8265 5.21094 44.8359 9.16274 44.8359 14.2471C44.8359 19.3314 48.8324 23.3103 54.0471 23.3103C59.2619 23.3103 63.2583 19.3344 63.2583 14.2742C63.2583 9.21395 59.2559 5.21094 54.0471 5.21094ZM54.0471 19.717C52.9822 19.7039 51.9449 19.3718 51.0657 18.7626C50.1864 18.1533 49.5046 17.2941 49.106 16.2929C48.7074 15.2918 48.6097 14.1936 48.8254 13.1363C49.041 12.0791 49.5603 11.1101 50.3179 10.3513C51.0755 9.59255 52.0376 9.07785 53.083 8.87199C54.1285 8.66614 55.2107 8.77832 56.1934 9.19442C57.1761 9.61053 58.0155 10.312 58.6059 11.2105C59.1963 12.109 59.5114 13.1645 59.5115 14.2441C59.5329 15.6743 58.9931 17.0547 58.0107 18.0816C57.0284 19.1084 55.6839 19.6978 54.273 19.72H54.0471V19.717Z" fill="white" stroke="white" stroke-width="0.75" stroke-miterlimit="10"/>
<path d="M82.0269 21.7288L72.8424 4.78906L63.5391 21.7228L66.9829 22.9276L68.7092 19.6475H76.9191L78.6544 22.9276H78.7108L82.0477 21.762L82.0269 21.7288ZM70.3791 16.4999L72.7978 11.9216L75.2343 16.5089L70.3791 16.4999Z" fill="white" stroke="white" stroke-width="0.75" stroke-miterlimit="10"/>
<path d="M92.6683 12.8254L90.321 12.3074C88.6243 11.9248 87.8904 11.455 87.8874 10.473C87.8874 9.3646 89.1235 8.74713 90.9033 8.75617C92.5075 8.79541 94.0713 9.27419 95.4287 10.1417L97.3126 7.18388C95.2508 5.96955 92.9105 5.32557 90.526 5.31641C86.7553 5.31641 83.8375 7.46701 83.8434 10.3616C83.8434 12.9941 85.3915 14.7652 89.2275 15.6236L91.355 16.0995C93.3874 16.5544 94.0292 16.9399 93.9728 18.0092C93.9163 19.0785 92.7664 19.7532 90.9568 19.7532C88.9348 19.742 86.9504 19.1981 85.1983 18.1748L83.1719 21.1387C85.1538 22.3947 88.0508 23.1989 90.7875 23.1989C95.0395 23.1989 97.892 20.9971 97.886 17.9911C97.8831 15.217 96.3498 13.6327 92.6683 12.8254Z" fill="white" stroke="white" stroke-width="0.75" stroke-miterlimit="10"/>
<path d="M44.9623 22.1445L40.7578 22.9397" stroke="white" stroke-width="0.75" stroke-miterlimit="10"/>
</svg>
